<?xml version="1.0" standalone="no"?>
<!DOCTYPE svg PUBLIC "-//W3C//DTD SVG 20010904//EN"
 "http://www.w3.org/TR/2001/REC-SVG-20010904/DTD/svg10.dtd">
<svg version="1.0" xmlns="http://www.w3.org/2000/svg"
 width="700.000000pt" height="700.000000pt" viewBox="0 0 700.000000 700.000000"
 preserveAspectRatio="xMidYMid meet">
<metadata>
Created by potrace 1.14, written by Peter Selinger 2001-2017
</metadata>
<g transform="translate(0.000000,700.000000) scale(0.100000,-0.100000)"
fill="#000000" stroke="none">
<path d="M4765 5684 c-233 -38 -449 -145 -617 -306 -82 -79 -109 -135 -110
-228 -3 -209 218 -354 406 -267 28 13 63 35 77 48 85 79 146 120 224 147 186
66 389 37 540 -77 69 -53 484 -468 537 -539 83 -109 113 -202 112 -347 0 -93
-4 -121 -27 -184 -14 -41 -43 -100 -64 -130 -57 -85 -1334 -1359 -1411 -1409
-104 -67 -176 -87 -317 -87 -137 1 -207 20 -305 84 -56 36 -497 467 -560 546
-81 104 -119 207 -124 339 -6 155 39 276 154 413 82 98 105 157 98 247 -17
206 -236 329 -421 234 -104 -52 -264 -265 -334 -442 -60 -154 -83 -291 -78
-471 7 -262 87 -480 248 -680 62 -76 341 -362 513 -525 199 -189 424 -297 679
-327 334 -38 664 69 916 297 30 27 1052 1046 1195 1192 77 79 167 177 198 218
95 122 187 337 210 485 2 17 7 49 11 72 14 89 6 262 -17 363 -5 25 -11 54 -14
64 -10 54 -52 160 -90 235 -38 72 -67 116 -144 216 -44 58 -555 558 -615 603
-68 50 -180 116 -189 110 -2 -2 -12 4 -22 13 -31 27 -197 77 -314 94 -82 13
-264 12 -345 -1z"/>
<path d="M2808 5285 c-2 -1 -31 -6 -66 -9 -182 -19 -387 -99 -538 -211 -96
-71 -156 -129 -836 -812 -579 -581 -641 -646 -702 -738 -79 -119 -156 -315
-171 -435 -4 -30 -9 -58 -11 -62 -6 -10 -5 -236 1 -278 34 -218 100 -384 218
-543 108 -147 683 -707 726 -707 6 0 11 -3 11 -7 0 -5 10 -13 23 -19 122 -62
159 -78 222 -99 160 -54 359 -74 520 -53 167 21 372 99 502 190 88 62 182 148
208 189 91 143 47 328 -99 414 -37 21 -61 28 -145 39 -56 7 -146 -33 -215 -96
-121 -109 -246 -159 -403 -161 -154 -1 -280 54 -415 181 -123 115 -389 384
-443 447 -44 51 -99 150 -109 195 -3 14 -11 48 -16 75 -15 67 -5 201 21 277
26 78 57 133 111 195 106 121 1309 1312 1359 1346 163 111 399 128 572 41 82
-42 117 -73 373 -328 248 -249 300 -312 334 -408 76 -218 29 -432 -135 -613
-111 -123 -113 -289 -3 -406 49 -54 111 -81 194 -87 62 -4 80 -1 128 21 152
70 328 333 398 593 30 111 32 131 32 284 0 126 -4 184 -18 245 -53 226 -146
400 -305 569 -87 91 -370 373 -451 449 -190 177 -399 277 -655 313 -36 5 -213
12 -217 9z"/>
</g>
</svg>
